<?xml version="1.0" encoding="utf-8"?>
<!-- Generator: Adobe Illustrator 19.2.1, SVG Export Plug-In . SVG Version: 6.00 Build 0)  -->
<svg version="1.1" id="Layer_1" xmlns="http://www.w3.org/2000/svg" xmlns:xlink="http://www.w3.org/1999/xlink" x="0px" y="0px"
	 viewBox="0 0 80.6 50.6" style="enable-background:new 0 0 80.6 50.6;" xml:space="preserve">
<style type="text/css">
	.st0{fill:#F57E20;stroke:#FFFFFF;stroke-width:0.576;stroke-miterlimit:10;}
	.st1{fill:#FFFFFF;}
	.st2{font-family:'Exo-Regular';}
	.st3{font-size:10px;}
</style>
<path class="st0" d="M71.3,9v6.1c0,1.4-1.5,2.6-3.3,2.6H16.4l0.1,6.4L1,12.2L16.1,0l0.1,6.4H68C69.8,6.4,71.3,7.6,71.3,9z"/>
<path class="st0" d="M75.3,32L60,44l0-6.4H8.6c-1.8,0-3.3-1.2-3.3-2.6v-6.1c0-1.4,1.5-2.6,3.3-2.6h51.4l0-6.4L75.3,32z"/>
<text transform="matrix(1 0 0 1 11.0519 14.9221)" class="st1 st2 st3">Greater Than</text>
<text transform="matrix(1 0 0 1 17.6472 35.5885)" class="st1 st2 st3">Less Than</text>
</svg>
