<?xml version="1.0" encoding="utf-8"?>
<!-- Generator: Adobe Illustrator 19.2.1, SVG Export Plug-In . SVG Version: 6.00 Build 0)  -->
<svg version="1.1" id="Layer_1" xmlns="http://www.w3.org/2000/svg" xmlns:xlink="http://www.w3.org/1999/xlink" x="0px" y="0px"
	 viewBox="0 0 80.6 50.6" style="enable-background:new 0 0 80.6 50.6;" xml:space="preserve">
<style type="text/css">
	.st0{fill:#F57E20;stroke:#FFFFFF;stroke-width:0.576;stroke-miterlimit:10;}
	.st1{fill:#FFFFFF;}
</style>
<path class="st0" d="M71.5,9.9V16c0,1.4-1.5,2.6-3.3,2.6H16.6l0.1,6.4L1.2,13.1L16.4,0.9l0.1,6.4h51.8C70,7.3,71.5,8.5,71.5,9.9z"/>
<path class="st0" d="M75.8,33.4l-15.3,12l0-6.4H9.1c-1.8,0-3.3-1.2-3.3-2.6v-6.1c0-1.4,1.5-2.6,3.3-2.6h51.4l0-6.4L75.8,33.4z"/>
<g>
	<path class="st1" d="M12.5,14.9c-0.1-0.3-0.2-0.7-0.2-1c0-0.3,0-0.8,0-1.3c0-0.5,0-1,0.1-1.4s0.2-0.8,0.3-1.1
		c0.3-0.7,1-1.1,1.9-1.1c0.3,0,0.7,0,1.2,0.1c0.5,0.1,1,0.1,1.3,0.2v0.6c-0.1,0-0.2,0-0.5,0c-0.3,0-0.5,0-0.7-0.1
		c-0.4,0-0.9,0-1.3,0c-0.6,0-1.1,0.2-1.3,0.7c-0.2,0.5-0.3,1.2-0.3,2.3s0.1,1.9,0.4,2.3c0.2,0.4,0.7,0.7,1.3,0.7
		c0.2,0,0.5,0,0.8-0.1s0.6-0.2,0.8-0.2l0.3-0.1v-2h-1.7v-0.5c0.6-0.2,1.2-0.3,1.7-0.3c0.2,0,0.4,0,0.7,0v3.9h-0.6l-0.2-0.5
		c-0.7,0.4-1.3,0.5-1.9,0.5c0,0,0,0-0.1,0c-0.4,0-0.7-0.1-1-0.2c-0.3-0.1-0.5-0.3-0.7-0.5C12.7,15.5,12.6,15.2,12.5,14.9z"/>
	<path class="st1" d="M18.4,16.3V11H19l0.2,0.7c0.5-0.3,0.8-0.5,1-0.5s0.3-0.1,0.4-0.1C20.7,11,21,11,21.3,11c0.3,0,0.5,0,0.6,0.1
		v0.7c-0.2,0-0.4-0.1-0.7-0.1s-0.6,0-0.8,0.1c-0.2,0.1-0.4,0.1-0.6,0.2s-0.4,0.2-0.7,0.3v4H18.4z"/>
	<path class="st1" d="M22.4,13.7c0-0.6,0-1.1,0.1-1.4c0.1-0.4,0.2-0.6,0.4-0.8c0.2-0.2,0.4-0.3,0.7-0.4s0.6-0.1,1-0.1
		c0.4,0,0.7,0,0.9,0.1c0.2,0,0.4,0.1,0.6,0.2c0.2,0.1,0.3,0.3,0.4,0.6c0.1,0.3,0.1,0.6,0.1,1c0,0.8-0.5,1.2-1.4,1.2h-2.2
		c0,0.6,0.1,1,0.2,1.2c0.1,0.2,0.4,0.3,0.8,0.3c1.2,0,2,0,2.5-0.1v0.6c-0.7,0.2-1.5,0.3-2.5,0.3c-0.7,0-1.1-0.2-1.4-0.6
		C22.5,15.4,22.4,14.7,22.4,13.7z M23.1,13.4h2.2c0.4,0,0.6-0.2,0.6-0.5c0-0.5-0.1-0.8-0.2-1c-0.1-0.1-0.5-0.2-1.1-0.2
		c-0.7,0-1.1,0.1-1.2,0.2c-0.2,0.2-0.3,0.4-0.3,0.7C23.2,12.8,23.1,13.1,23.1,13.4z"/>
	<path class="st1" d="M27.7,11.2c0.7-0.2,1.6-0.3,2.6-0.3c0.4,0,0.8,0.1,1.1,0.4c0.3,0.3,0.4,0.6,0.4,1.2v3.9h-0.5l-0.2-0.6
		l-0.2,0.1c-0.9,0.4-1.6,0.6-2.1,0.6c-0.4,0-0.7-0.1-1-0.4c-0.3-0.2-0.4-0.6-0.4-1v-0.6c0-0.4,0.1-0.7,0.4-1c0.2-0.2,0.6-0.4,1-0.4
		c0.7,0,1.5,0,2.2,0c0-0.2,0-0.4,0-0.5c0-0.1,0-0.2,0-0.2c0-0.5-0.3-0.8-0.9-0.8s-1.4,0-2.5,0.1V11.2z M28.3,15
		c0,0.4,0.2,0.6,0.6,0.6c0.2,0,0.5,0,0.9-0.1c0.4-0.1,0.7-0.2,0.9-0.3l0.4-0.1v-1.4l-2.2,0.2c-0.2,0-0.3,0.1-0.4,0.2
		c-0.1,0.1-0.1,0.3-0.1,0.4V15z"/>
	<path class="st1" d="M32.5,11.8v-0.6l1-0.2l0.2-1.5h0.6V11h1.6v0.7h-1.6v2.7c0,0.4,0,0.7,0.1,0.8c0.1,0.2,0.2,0.3,0.4,0.3
		c0.5,0.1,0.8,0.2,0.9,0.2v0.5h-0.9c-0.9,0-1.3-0.6-1.3-1.9v-2.7H32.5z"/>
	<path class="st1" d="M36.6,13.7c0-0.6,0-1.1,0.1-1.4c0.1-0.4,0.2-0.6,0.4-0.8c0.2-0.2,0.4-0.3,0.7-0.4s0.6-0.1,1-0.1s0.7,0,0.9,0.1
		c0.2,0,0.4,0.1,0.6,0.2c0.2,0.1,0.3,0.3,0.4,0.6s0.1,0.6,0.1,1c0,0.8-0.5,1.2-1.4,1.2h-2.2c0,0.6,0.1,1,0.2,1.2
		c0.1,0.2,0.4,0.3,0.8,0.3c1.2,0,2,0,2.5-0.1v0.6c-0.7,0.2-1.5,0.3-2.5,0.3c-0.7,0-1.1-0.2-1.4-0.6C36.7,15.4,36.6,14.7,36.6,13.7z
		 M37.4,13.4h2.2c0.4,0,0.6-0.2,0.6-0.5c0-0.5-0.1-0.8-0.2-1c-0.2-0.1-0.5-0.2-1.1-0.2c-0.7,0-1.1,0.1-1.2,0.2
		c-0.2,0.2-0.3,0.4-0.3,0.7C37.4,12.8,37.4,13.1,37.4,13.4z"/>
	<path class="st1" d="M42,16.3V11h0.5l0.2,0.7c0.5-0.3,0.8-0.5,1-0.5c0.1,0,0.3-0.1,0.4-0.1c0.2-0.1,0.5-0.1,0.8-0.1s0.5,0,0.6,0.1
		v0.7c-0.2,0-0.4-0.1-0.7-0.1c-0.3,0-0.6,0-0.8,0.1c-0.2,0.1-0.4,0.1-0.5,0.2s-0.4,0.2-0.7,0.3v4H42z"/>
	<path class="st1" d="M48.6,9.8V9h5.1v0.7h-2.2v6.6h-0.7V9.8H48.6z"/>
	<path class="st1" d="M54.5,16.3V8.5h0.7v3.1c0,0,0.1,0,0.2-0.1c0.1-0.1,0.2-0.1,0.2-0.1c0,0,0.1-0.1,0.2-0.1s0.2-0.1,0.2-0.1
		c0,0,0.1,0,0.2-0.1c0.1,0,0.2-0.1,0.3-0.1c0.2,0,0.4-0.1,0.6-0.1c0.5,0,0.9,0.2,1.2,0.5c0.3,0.3,0.4,0.7,0.4,1.2v3.7h-0.7v-3.7
		c0-0.3-0.1-0.6-0.2-0.7s-0.4-0.2-0.6-0.2c-0.3,0-0.5,0-0.7,0.1c-0.2,0.1-0.4,0.1-0.5,0.2s-0.4,0.2-0.7,0.3v4.1H54.5z"/>
	<path class="st1" d="M59.9,11.2c0.7-0.2,1.6-0.3,2.6-0.3c0.4,0,0.8,0.1,1.1,0.4s0.4,0.6,0.4,1.2v3.9h-0.6l-0.2-0.6l-0.2,0.1
		c-0.9,0.4-1.6,0.6-2.1,0.6c-0.4,0-0.7-0.1-1-0.4c-0.3-0.2-0.4-0.6-0.4-1v-0.6c0-0.4,0.1-0.7,0.4-1c0.2-0.2,0.6-0.4,1-0.4
		c0.7,0,1.5,0,2.2,0c0-0.2,0-0.4,0-0.5c0-0.1,0-0.2,0-0.2c0-0.5-0.3-0.8-0.9-0.8c-0.6,0-1.4,0-2.5,0.1V11.2z M60.5,15
		c0,0.4,0.2,0.6,0.6,0.6c0.2,0,0.5,0,0.9-0.1c0.4-0.1,0.7-0.2,0.9-0.3l0.4-0.1v-1.4l-2.2,0.2c-0.2,0-0.3,0.1-0.4,0.2
		c-0.1,0.1-0.1,0.3-0.1,0.4V15z"/>
	<path class="st1" d="M65.1,16.3V11h0.5l0.2,0.6c0,0,0.1,0,0.2-0.1c0.1-0.1,0.2-0.1,0.2-0.1c0,0,0.1-0.1,0.2-0.1s0.2-0.1,0.2-0.1
		c0,0,0.1,0,0.2-0.1c0.1,0,0.2-0.1,0.3-0.1c0.2,0,0.4-0.1,0.6-0.1c0.5,0,0.9,0.2,1.2,0.5s0.4,0.7,0.4,1.2v3.7h-0.7v-3.7
		c0-0.3-0.1-0.6-0.3-0.7c-0.2-0.2-0.4-0.2-0.6-0.2c-0.3,0-0.5,0-0.7,0.1c-0.2,0.1-0.4,0.1-0.5,0.2s-0.4,0.2-0.7,0.3v4.1H65.1z"/>
</g>
<g>
	<path class="st1" d="M19.2,35.7v-6.1H20v6.1c0,0.3,0.1,0.4,0.2,0.5c0.1,0,0.2,0.1,0.4,0.1h3.1V37h-3.1c-0.4,0-0.7-0.1-0.9-0.2
		C19.4,36.6,19.2,36.3,19.2,35.7z"/>
	<path class="st1" d="M24.1,34.3c0-0.6,0-1.1,0.1-1.4c0.1-0.4,0.2-0.6,0.4-0.8s0.4-0.3,0.7-0.4s0.6-0.1,1-0.1c0.4,0,0.7,0,0.9,0.1
		c0.2,0,0.4,0.1,0.6,0.2s0.3,0.3,0.4,0.6c0.1,0.3,0.1,0.6,0.1,1c0,0.8-0.5,1.2-1.4,1.2h-2.2c0,0.6,0.1,1,0.2,1.2
		c0.1,0.2,0.4,0.3,0.8,0.3c1.2,0,2,0,2.5-0.1v0.6c-0.7,0.2-1.5,0.3-2.5,0.3c-0.7,0-1.1-0.2-1.4-0.6C24.2,36.1,24.1,35.4,24.1,34.3z
		 M24.9,34h2.2c0.4,0,0.6-0.2,0.6-0.5c0-0.5-0.1-0.8-0.2-1c-0.1-0.1-0.5-0.2-1.1-0.2c-0.7,0-1.1,0.1-1.2,0.2
		c-0.2,0.2-0.3,0.4-0.3,0.7C24.9,33.5,24.9,33.8,24.9,34z"/>
	<path class="st1" d="M29.3,33.4V33c0-0.4,0.1-0.8,0.3-1c0.2-0.2,0.6-0.3,1.2-0.3c0.6,0,1.4,0.1,2.5,0.2v0.6h-2.6
		c-0.3,0-0.5,0.1-0.6,0.2C30,32.6,30,32.8,30,33v0.5c0,0.3,0.1,0.4,0.2,0.5c0.1,0.1,0.3,0.1,0.4,0.1h1.6c0.4,0,0.7,0.1,1,0.4
		c0.2,0.2,0.3,0.5,0.3,0.9v0.5c0,0.5-0.1,0.8-0.4,1c-0.2,0.2-0.6,0.3-0.9,0.3c-0.6,0-1.5-0.1-2.7-0.2v-0.5h2.7c0,0,0,0,0.1,0
		s0.1,0,0.1,0c0.1,0,0.1,0,0.2-0.1c0.1-0.1,0.2-0.2,0.2-0.5v-0.5c0-0.2,0-0.3-0.1-0.4c-0.1-0.1-0.2-0.1-0.4-0.1h-1.6
		c-0.5,0-0.8-0.1-1.1-0.3C29.4,34.3,29.3,33.9,29.3,33.4z"/>
	<path class="st1" d="M34.2,33.4V33c0-0.4,0.1-0.8,0.3-1c0.2-0.2,0.6-0.3,1.2-0.3c0.6,0,1.4,0.1,2.5,0.2v0.6h-2.6
		c-0.3,0-0.5,0.1-0.6,0.2C35,32.6,35,32.8,35,33v0.5c0,0.3,0.1,0.4,0.2,0.5c0.1,0.1,0.3,0.1,0.4,0.1h1.6c0.4,0,0.7,0.1,1,0.4
		c0.2,0.2,0.3,0.5,0.3,0.9v0.5c0,0.5-0.1,0.8-0.4,1c-0.2,0.2-0.6,0.3-0.9,0.3c-0.6,0-1.5-0.1-2.7-0.2v-0.5h2.7c0,0,0,0,0.1,0
		c0,0,0.1,0,0.1,0c0.1,0,0.1,0,0.2-0.1c0.1-0.1,0.2-0.2,0.2-0.5v-0.5c0-0.2,0-0.3-0.1-0.4c-0.1-0.1-0.2-0.1-0.4-0.1h-1.6
		c-0.5,0-0.8-0.1-1.1-0.3C34.3,34.3,34.2,33.9,34.2,33.4z"/>
	<path class="st1" d="M41.8,30.4v-0.7h5.1v0.7h-2.2V37H44v-6.6H41.8z"/>
	<path class="st1" d="M47.8,37v-7.8h0.7v3.1c0,0,0.1,0,0.2-0.1c0.1-0.1,0.2-0.1,0.2-0.1s0.1-0.1,0.2-0.1s0.2-0.1,0.2-0.1
		c0,0,0.1,0,0.2-0.1c0.1,0,0.2-0.1,0.3-0.1c0.2,0,0.4-0.1,0.6-0.1c0.5,0,0.9,0.2,1.2,0.5c0.3,0.3,0.4,0.7,0.4,1.2V37h-0.7v-3.7
		c0-0.3-0.1-0.6-0.2-0.7c-0.2-0.2-0.4-0.2-0.6-0.2c-0.3,0-0.5,0-0.7,0.1s-0.4,0.1-0.5,0.2c-0.1,0.1-0.4,0.2-0.7,0.3V37H47.8z"/>
	<path class="st1" d="M53.2,31.9c0.7-0.2,1.6-0.3,2.6-0.3c0.4,0,0.8,0.1,1.1,0.4c0.3,0.3,0.4,0.6,0.4,1.2V37h-0.5l-0.2-0.6l-0.2,0.1
		c-0.9,0.4-1.6,0.6-2.1,0.6c-0.4,0-0.7-0.1-1-0.3c-0.3-0.2-0.4-0.6-0.4-1v-0.6c0-0.4,0.1-0.7,0.4-1c0.2-0.2,0.6-0.4,1-0.4
		c0.7,0,1.5,0,2.2,0c0-0.2,0-0.4,0-0.5s0-0.2,0-0.2c0-0.5-0.3-0.8-0.9-0.8s-1.4,0-2.5,0.1V31.9z M53.7,35.7c0,0.4,0.2,0.6,0.6,0.6
		c0.2,0,0.5,0,0.9-0.1c0.4-0.1,0.7-0.2,0.9-0.3l0.4-0.1v-1.4l-2.2,0.2c-0.2,0-0.3,0.1-0.4,0.2s-0.1,0.3-0.1,0.4V35.7z"/>
	<path class="st1" d="M58.4,37v-5.3h0.5l0.2,0.6c0,0,0.1,0,0.2-0.1c0.1-0.1,0.2-0.1,0.2-0.1s0.1-0.1,0.2-0.1s0.2-0.1,0.2-0.1
		c0,0,0.1,0,0.2-0.1c0.1,0,0.2-0.1,0.3-0.1c0.2,0,0.4-0.1,0.6-0.1c0.5,0,0.9,0.2,1.2,0.5c0.3,0.3,0.4,0.7,0.4,1.2V37H62v-3.7
		c0-0.3-0.1-0.6-0.3-0.7c-0.2-0.2-0.4-0.2-0.6-0.2c-0.3,0-0.5,0-0.7,0.1s-0.4,0.1-0.5,0.2s-0.4,0.2-0.7,0.3V37H58.4z"/>
</g>
</svg>
