<?xml version="1.0" encoding="utf-8"?>
<!-- Generator: Adobe Illustrator 19.2.1, SVG Export Plug-In . SVG Version: 6.00 Build 0)  -->
<svg version="1.1" id="Layer_1" xmlns="http://www.w3.org/2000/svg" xmlns:xlink="http://www.w3.org/1999/xlink" x="0px" y="0px"
	 viewBox="0 0 79.9 27" style="enable-background:new 0 0 79.9 27;" xml:space="preserve">
<style type="text/css">
	.st0{fill:#F57E20;stroke:#FFFFFF;stroke-width:0.72;stroke-miterlimit:10;}
	.st1{fill:#FFFFFF;stroke:#FFFFFF;stroke-width:0.36;stroke-miterlimit:10;}
</style>
<path class="st0" d="M74.2,13.7l-15.3,12v-6.4H7.5c-1.8,0-3.3-1.2-3.3-2.6v-6.1C4.2,9.2,5.7,8,7.5,8h51.4V1.6L74.2,13.7z"/>
<g>
	<path class="st1" d="M10.5,16.1c-0.1-0.4-0.2-0.7-0.2-1.1c0-0.4,0-0.8,0-1.4c0-0.5,0-1,0.1-1.4c0.1-0.4,0.2-0.8,0.3-1.2
		c0.3-0.8,0.9-1.2,1.8-1.2c0.2,0,0.6,0,1.1,0.1c0.5,0.1,0.9,0.1,1.2,0.2v0.6c-0.1,0-0.2,0-0.5,0c-0.3,0-0.5,0-0.7-0.1
		c-0.4,0-0.8,0-1.2,0c-0.6,0-1,0.2-1.2,0.7c-0.2,0.5-0.3,1.3-0.3,2.5s0.1,2,0.3,2.4c0.2,0.5,0.6,0.7,1.2,0.7c0.2,0,0.5,0,0.8-0.1
		c0.3-0.1,0.5-0.2,0.7-0.2l0.3-0.1v-2.1h-1.6v-0.5c0.6-0.2,1.1-0.3,1.6-0.3c0.2,0,0.4,0,0.6,0v4.1h-0.5l-0.1-0.5
		c-0.6,0.4-1.2,0.6-1.8,0.6c0,0,0,0-0.1,0c-0.3,0-0.6-0.1-0.9-0.2c-0.3-0.1-0.5-0.3-0.6-0.5C10.7,16.7,10.6,16.4,10.5,16.1z"/>
	<path class="st1" d="M16,17.6V12h0.5l0.2,0.7c0.5-0.3,0.8-0.5,0.9-0.6c0.1,0,0.2-0.1,0.3-0.1c0.2-0.1,0.4-0.1,0.7-0.1
		c0.3,0,0.5,0,0.6,0.1v0.8c-0.1,0-0.4-0.1-0.6-0.1c-0.3,0-0.5,0-0.7,0.1c-0.2,0.1-0.4,0.1-0.5,0.2c-0.1,0.1-0.3,0.2-0.7,0.3v4.3H16z
		"/>
	<path class="st1" d="M19.7,14.8c0-0.6,0-1.1,0.1-1.5c0.1-0.4,0.2-0.7,0.4-0.9c0.2-0.2,0.4-0.3,0.6-0.4c0.2-0.1,0.5-0.1,0.9-0.1
		s0.7,0,0.9,0.1c0.2,0,0.4,0.1,0.6,0.2c0.2,0.1,0.3,0.3,0.4,0.6c0.1,0.3,0.1,0.6,0.1,1.1c0,0.9-0.4,1.3-1.3,1.3h-2.1
		c0,0.7,0.1,1.1,0.2,1.3c0.1,0.2,0.4,0.3,0.7,0.3c1.1,0,1.9,0,2.3-0.1v0.6c-0.6,0.2-1.4,0.3-2.3,0.3c-0.6,0-1-0.2-1.3-0.6
		C19.8,16.6,19.7,15.9,19.7,14.8z M20.4,14.5h2.1c0.4,0,0.6-0.2,0.6-0.5c0-0.5-0.1-0.9-0.2-1s-0.5-0.2-1-0.2c-0.6,0-1,0.1-1.1,0.2
		c-0.2,0.2-0.3,0.4-0.3,0.7C20.4,13.9,20.4,14.2,20.4,14.5z"/>
	<path class="st1" d="M24.6,12.2c0.7-0.2,1.5-0.3,2.4-0.3c0.4,0,0.7,0.1,1,0.4c0.3,0.3,0.4,0.7,0.4,1.2v4.1h-0.5l-0.2-0.7L27.6,17
		c-0.8,0.4-1.4,0.7-1.9,0.7c-0.4,0-0.6-0.1-0.9-0.4c-0.2-0.2-0.4-0.6-0.4-1v-0.6c0-0.4,0.1-0.8,0.3-1c0.2-0.3,0.5-0.4,0.9-0.4
		c0.7,0,1.4,0,2.1,0c0-0.2,0-0.4,0-0.5s0-0.2,0-0.2c0-0.6-0.3-0.9-0.8-0.9c-0.5,0-1.3,0-2.3,0.1V12.2z M25.1,16.2
		c0,0.4,0.2,0.7,0.5,0.7c0.2,0,0.5,0,0.8-0.1c0.3-0.1,0.6-0.2,0.9-0.3l0.3-0.1v-1.5L25.7,15c-0.2,0-0.3,0.1-0.4,0.2
		c-0.1,0.1-0.1,0.3-0.1,0.5V16.2z"/>
	<path class="st1" d="M29,12.8v-0.6L30,12l0.2-1.6h0.5V12h1.4v0.8h-1.4v2.8c0,0.4,0,0.7,0.1,0.9c0.1,0.2,0.2,0.3,0.4,0.3
		C31.7,17,31.9,17,32,17v0.6h-0.8c-0.8,0-1.2-0.7-1.2-2v-2.8H29z"/>
	<path class="st1" d="M32.8,14.8c0-0.6,0-1.1,0.1-1.5c0.1-0.4,0.2-0.7,0.4-0.9c0.2-0.2,0.4-0.3,0.6-0.4c0.2-0.1,0.5-0.1,0.9-0.1
		s0.7,0,0.9,0.1c0.2,0,0.4,0.1,0.6,0.2c0.2,0.1,0.3,0.3,0.4,0.6c0.1,0.3,0.1,0.6,0.1,1.1c0,0.9-0.4,1.3-1.3,1.3h-2.1
		c0,0.7,0.1,1.1,0.2,1.3c0.1,0.2,0.4,0.3,0.7,0.3c1.1,0,1.9,0,2.3-0.1v0.6c-0.6,0.2-1.4,0.3-2.3,0.3c-0.6,0-1-0.2-1.3-0.6
		C32.9,16.6,32.8,15.9,32.8,14.8z M33.5,14.5h2.1c0.4,0,0.6-0.2,0.6-0.5c0-0.5-0.1-0.9-0.2-1s-0.5-0.2-1-0.2c-0.6,0-1,0.1-1.1,0.2
		c-0.2,0.2-0.3,0.4-0.3,0.7C33.5,13.9,33.5,14.2,33.5,14.5z"/>
	<path class="st1" d="M37.7,17.6V12h0.5l0.2,0.7c0.5-0.3,0.8-0.5,0.9-0.6c0.1,0,0.2-0.1,0.3-0.1c0.2-0.1,0.4-0.1,0.7-0.1
		c0.3,0,0.5,0,0.6,0.1v0.8c-0.1,0-0.4-0.1-0.6-0.1c-0.3,0-0.5,0-0.7,0.1c-0.2,0.1-0.4,0.1-0.5,0.2c-0.1,0.1-0.3,0.2-0.7,0.3v4.3
		H37.7z"/>
	<path class="st1" d="M43.9,10.7V9.9h4.7v0.8h-2v6.9h-0.7v-6.9H43.9z"/>
	<path class="st1" d="M49.3,17.6V9.3H50v3.3c0,0,0.1-0.1,0.2-0.1c0.1-0.1,0.2-0.1,0.2-0.1c0,0,0.1-0.1,0.2-0.1
		c0.1-0.1,0.2-0.1,0.2-0.1c0,0,0.1,0,0.2-0.1c0.1,0,0.2-0.1,0.2-0.1c0.2,0,0.4-0.1,0.5-0.1c0.5,0,0.8,0.2,1.1,0.5
		c0.3,0.4,0.4,0.8,0.4,1.3v3.9h-0.7v-3.9c0-0.3-0.1-0.6-0.2-0.8s-0.3-0.3-0.6-0.3c-0.2,0-0.5,0-0.7,0.1c-0.2,0.1-0.4,0.1-0.5,0.2
		c-0.1,0.1-0.3,0.2-0.6,0.3v4.3H49.3z"/>
	<path class="st1" d="M54.3,12.2c0.7-0.2,1.5-0.3,2.4-0.3c0.4,0,0.7,0.1,1,0.4s0.4,0.7,0.4,1.2v4.1h-0.5l-0.2-0.7L57.3,17
		c-0.8,0.4-1.4,0.7-1.9,0.7c-0.4,0-0.6-0.1-0.9-0.4c-0.2-0.2-0.4-0.6-0.4-1v-0.6c0-0.4,0.1-0.8,0.3-1c0.2-0.3,0.5-0.4,0.9-0.4
		c0.7,0,1.4,0,2.1,0c0-0.2,0-0.4,0-0.5s0-0.2,0-0.2c0-0.6-0.3-0.9-0.8-0.9c-0.5,0-1.3,0-2.3,0.1V12.2z M54.8,16.2
		c0,0.4,0.2,0.7,0.5,0.7c0.2,0,0.5,0,0.8-0.1c0.3-0.1,0.6-0.2,0.9-0.3l0.3-0.1v-1.5L55.4,15c-0.2,0-0.3,0.1-0.4,0.2
		c-0.1,0.1-0.1,0.3-0.1,0.5V16.2z"/>
	<path class="st1" d="M59.1,17.6V12h0.5l0.2,0.7c0,0,0.1-0.1,0.2-0.1c0.1-0.1,0.2-0.1,0.2-0.1c0,0,0.1-0.1,0.2-0.1
		c0.1-0.1,0.2-0.1,0.2-0.1c0,0,0.1,0,0.2-0.1c0.1,0,0.2-0.1,0.2-0.1c0.2,0,0.4-0.1,0.5-0.1c0.5,0,0.8,0.2,1.1,0.5
		c0.3,0.4,0.4,0.8,0.4,1.3v3.9h-0.7v-3.9c0-0.3-0.1-0.6-0.2-0.8c-0.2-0.2-0.4-0.3-0.6-0.3s-0.5,0-0.7,0.1c-0.2,0.1-0.4,0.1-0.5,0.2
		c-0.1,0.1-0.3,0.2-0.6,0.3v4.3H59.1z"/>
</g>
</svg>
