<?xml version="1.0" encoding="utf-8"?>
<!-- Generator: Adobe Illustrator 19.2.1, SVG Export Plug-In . SVG Version: 6.00 Build 0)  -->
<svg version="1.1" id="Layer_1" xmlns="http://www.w3.org/2000/svg" xmlns:xlink="http://www.w3.org/1999/xlink" x="0px" y="0px"
	 viewBox="0 0 863.6 572.7" style="enable-background:new 0 0 863.6 572.7;" xml:space="preserve">
<style type="text/css">
	.st0{fill:#F57E20;stroke:#FFFFFF;stroke-width:0.72;stroke-miterlimit:10;}
	.st1{fill:#FFFFFF;}
</style>
<path class="st0" d="M-94.5,572.4l-11.2,12V578h-37.5c-1.3,0-2.4-1.2-2.4-2.6v-6.1c0-1.4,1.1-2.6,2.4-2.6h37.5v-6.4L-94.5,572.4z"/>
<path class="st1" d="M598.6,31.1c1.4,1.6,2.6,3.4,4.1,4.9c82.1,82.2,164.3,164.3,246.4,246.4c1.4,1.4,3,2.7,4,3.5
	c-85.6,85.6-170.8,170.8-255.7,255.7c-31.1-31.1-63-63-95-95.1C554.9,393.9,608,340.9,660.8,288c-53.5-53.5-106.6-106.6-159.8-159.7
	c-0.3-0.9-0.6-1.8-0.8-2.6c1.7-0.8,3.7-1.3,4.9-2.5c29.4-29.3,58.7-58.6,88.1-88c1.2-1.3,2.2-2.8,3.4-4.1
	C597.2,31.1,597.9,31.1,598.6,31.1z"/>
</svg>
