<?xml version="1.0" encoding="utf-8"?>
<!-- Generator: Adobe Illustrator 19.2.1, SVG Export Plug-In . SVG Version: 6.00 Build 0)  -->
<svg version="1.1" id="Layer_1" xmlns="http://www.w3.org/2000/svg" xmlns:xlink="http://www.w3.org/1999/xlink" x="0px" y="0px"
	 viewBox="0 0 80.6 28" style="enable-background:new 0 0 80.6 28;" xml:space="preserve">
<style type="text/css">
	.st0{fill:#F57E20;stroke:#FFFFFF;stroke-width:0.72;stroke-miterlimit:10;}
	.st1{fill:#FFFFFF;stroke:#FFFFFF;stroke-width:0.36;stroke-miterlimit:10;}
</style>
<path class="st0" d="M71.5,11.2v6.1c0,1.4-1.5,2.6-3.3,2.6H16.6l0.1,6.4L1.2,14.4L16.4,2.2l0.1,6.4h51.8C70,8.6,71.5,9.8,71.5,11.2z
	"/>
<g>
	<path class="st1" d="M21.1,16.8v-6.2h0.7v6.2c0,0.3,0.1,0.4,0.2,0.5c0.1,0,0.2,0.1,0.4,0.1h3v0.8h-3c-0.4,0-0.7-0.1-0.9-0.2
		C21.3,17.7,21.1,17.3,21.1,16.8z"/>
	<path class="st1" d="M25.9,15.3c0-0.6,0-1.1,0.1-1.5c0.1-0.4,0.2-0.6,0.4-0.8c0.2-0.2,0.4-0.3,0.7-0.4c0.3-0.1,0.6-0.1,1-0.1
		s0.7,0,0.9,0.1c0.2,0,0.4,0.1,0.6,0.2c0.2,0.1,0.3,0.3,0.4,0.6c0.1,0.3,0.1,0.6,0.1,1.1c0,0.8-0.5,1.3-1.4,1.3h-2.2
		c0,0.6,0.1,1.1,0.2,1.3c0.1,0.2,0.4,0.3,0.8,0.3c1.2,0,2,0,2.5-0.1v0.6c-0.7,0.2-1.5,0.3-2.5,0.3c-0.7,0-1.1-0.2-1.4-0.6
		C26,17.1,25.9,16.4,25.9,15.3z M26.7,15h2.2c0.4,0,0.6-0.2,0.6-0.5c0-0.5-0.1-0.9-0.2-1s-0.5-0.2-1-0.2c-0.7,0-1.1,0.1-1.2,0.2
		c-0.2,0.2-0.3,0.4-0.3,0.7C26.7,14.5,26.7,14.7,26.7,15z"/>
	<path class="st1" d="M31,14.4v-0.5c0-0.4,0.1-0.8,0.3-1c0.2-0.2,0.6-0.3,1.1-0.3c0.6,0,1.4,0.1,2.5,0.2v0.6h-2.6
		c-0.3,0-0.5,0.1-0.6,0.2c-0.1,0.1-0.1,0.2-0.1,0.4v0.5c0,0.3,0.1,0.4,0.2,0.5c0.1,0.1,0.3,0.1,0.4,0.1h1.6c0.4,0,0.7,0.1,1,0.4
		c0.2,0.2,0.3,0.6,0.3,1v0.5c0,0.5-0.1,0.9-0.4,1c-0.2,0.2-0.5,0.3-0.9,0.3c-0.6,0-1.5-0.1-2.7-0.2v-0.6h2.7c0,0,0,0,0.1,0
		s0.1,0,0.1,0c0.1,0,0.1,0,0.2-0.1c0.1-0.1,0.2-0.2,0.2-0.5v-0.5c0-0.2,0-0.3-0.1-0.4c-0.1-0.1-0.2-0.1-0.4-0.1h-1.6
		c-0.5,0-0.8-0.1-1-0.3S31,14.9,31,14.4z"/>
	<path class="st1" d="M35.9,14.4v-0.5c0-0.4,0.1-0.8,0.3-1c0.2-0.2,0.6-0.3,1.1-0.3c0.6,0,1.4,0.1,2.5,0.2v0.6h-2.6
		c-0.3,0-0.5,0.1-0.6,0.2c-0.1,0.1-0.1,0.2-0.1,0.4v0.5c0,0.3,0.1,0.4,0.2,0.5c0.1,0.1,0.3,0.1,0.4,0.1h1.6c0.4,0,0.7,0.1,1,0.4
		c0.2,0.2,0.3,0.6,0.3,1v0.5c0,0.5-0.1,0.9-0.4,1c-0.2,0.2-0.5,0.3-0.9,0.3c-0.6,0-1.5-0.1-2.7-0.2v-0.6h2.7c0,0,0,0,0.1,0
		s0.1,0,0.1,0c0.1,0,0.1,0,0.2-0.1c0.1-0.1,0.2-0.2,0.2-0.5v-0.5c0-0.2,0-0.3-0.1-0.4c-0.1-0.1-0.2-0.1-0.4-0.1h-1.6
		c-0.5,0-0.8-0.1-1-0.3S35.9,14.9,35.9,14.4z"/>
	<path class="st1" d="M43.4,11.3v-0.8h5v0.8h-2.2v6.8h-0.7v-6.8H43.4z"/>
	<path class="st1" d="M49.2,18.1V10H50v3.2c0,0,0.1,0,0.2-0.1c0.1-0.1,0.2-0.1,0.2-0.1c0,0,0.1-0.1,0.2-0.1c0.1-0.1,0.2-0.1,0.2-0.1
		c0,0,0.1,0,0.2-0.1c0.1,0,0.2-0.1,0.3-0.1c0.2,0,0.4-0.1,0.6-0.1c0.5,0,0.9,0.2,1.2,0.5c0.3,0.3,0.4,0.8,0.4,1.2v3.8h-0.7v-3.8
		c0-0.3-0.1-0.6-0.2-0.7c-0.2-0.2-0.4-0.2-0.6-0.2s-0.5,0-0.7,0.1c-0.2,0.1-0.4,0.1-0.5,0.2c-0.1,0.1-0.4,0.2-0.7,0.3v4.2H49.2z"/>
	<path class="st1" d="M54.6,12.8c0.7-0.2,1.6-0.3,2.6-0.3c0.4,0,0.8,0.1,1.1,0.4c0.3,0.3,0.4,0.7,0.4,1.2v4h-0.5l-0.2-0.7l-0.1,0.1
		c-0.9,0.4-1.5,0.6-2,0.6c-0.4,0-0.7-0.1-0.9-0.4c-0.3-0.2-0.4-0.6-0.4-1v-0.6c0-0.4,0.1-0.8,0.4-1c0.2-0.2,0.6-0.4,1-0.4
		c0.7,0,1.5,0,2.2,0c0-0.2,0-0.4,0-0.5s0-0.2,0-0.2c0-0.6-0.3-0.8-0.8-0.8c-0.6,0-1.4,0-2.5,0.1V12.8z M55.1,16.7
		c0,0.4,0.2,0.6,0.6,0.6c0.2,0,0.5,0,0.9-0.1c0.4-0.1,0.7-0.2,0.9-0.3l0.4-0.1v-1.5l-2.2,0.2c-0.2,0-0.3,0.1-0.4,0.2
		c-0.1,0.1-0.1,0.3-0.1,0.5V16.7z"/>
	<path class="st1" d="M59.7,18.1v-5.5h0.5l0.2,0.6c0,0,0.1,0,0.2-0.1c0.1-0.1,0.2-0.1,0.2-0.1c0,0,0.1-0.1,0.2-0.1
		c0.1-0.1,0.2-0.1,0.2-0.1c0,0,0.1,0,0.2-0.1c0.1,0,0.2-0.1,0.3-0.1c0.2,0,0.4-0.1,0.6-0.1c0.5,0,0.9,0.2,1.2,0.5
		c0.3,0.3,0.4,0.8,0.4,1.2v3.8h-0.7v-3.8c0-0.3-0.1-0.6-0.2-0.7c-0.2-0.2-0.4-0.3-0.6-0.3s-0.5,0-0.7,0.1c-0.2,0.1-0.4,0.1-0.5,0.2
		c-0.1,0.1-0.4,0.2-0.7,0.3v4.2H59.7z"/>
</g>
</svg>
