<?xml version="1.0" encoding="utf-8"?>
<!-- Generator: Adobe Illustrator 19.2.1, SVG Export Plug-In . SVG Version: 6.00 Build 0)  -->
<svg version="1.1" id="Layer_1" xmlns="http://www.w3.org/2000/svg" xmlns:xlink="http://www.w3.org/1999/xlink" x="0px" y="0px"
	 viewBox="0 0 863.2 575.9" style="enable-background:new 0 0 863.2 575.9;" xml:space="preserve">
<style type="text/css">
	.st0{fill:#F57E20;stroke:#FFFFFF;stroke-width:0.72;stroke-miterlimit:10;}
	.st1{fill:#FFFFFF;stroke:#FFFFFF;stroke-width:0.36;stroke-miterlimit:10;}
	.st2{fill:#FFFFFF;}
</style>
<path class="st0" d="M31.2-72.2v6.1c0,1.4-1.5,2.6-3.3,2.6h-51.6l0.1,6.4L-39.1-69l15.2-12.2l0.1,6.4H28
	C29.7-74.8,31.2-73.6,31.2-72.2z"/>
<g>
	<path class="st1" d="M-19.2-66.6v-6.2h0.7v6.2c0,0.3,0.1,0.4,0.2,0.5c0.1,0,0.2,0.1,0.4,0.1h3v0.8h-3c-0.4,0-0.7-0.1-0.9-0.2
		C-19-65.7-19.2-66.1-19.2-66.6z"/>
	<path class="st1" d="M-14.4-68.1c0-0.6,0-1.1,0.1-1.5s0.2-0.6,0.4-0.8c0.2-0.2,0.4-0.3,0.7-0.4c0.3-0.1,0.6-0.1,1-0.1
		s0.7,0,0.9,0.1c0.2,0,0.4,0.1,0.6,0.2s0.3,0.3,0.4,0.6c0.1,0.3,0.1,0.6,0.1,1.1c0,0.8-0.5,1.3-1.4,1.3h-2.2c0,0.6,0.1,1.1,0.2,1.3
		c0.1,0.2,0.4,0.3,0.8,0.3c1.2,0,2,0,2.5-0.1v0.6c-0.7,0.2-1.5,0.3-2.5,0.3c-0.7,0-1.1-0.2-1.4-0.6C-14.3-66.3-14.4-67-14.4-68.1z
		 M-13.6-68.4h2.2c0.4,0,0.6-0.2,0.6-0.5c0-0.5-0.1-0.9-0.2-1c-0.1-0.1-0.5-0.2-1-0.2c-0.7,0-1.1,0.1-1.2,0.2
		c-0.2,0.2-0.3,0.4-0.3,0.7C-13.6-68.9-13.6-68.7-13.6-68.4z"/>
	<path class="st1" d="M-9.3-69v-0.5c0-0.4,0.1-0.8,0.3-1c0.2-0.2,0.6-0.3,1.1-0.3c0.6,0,1.4,0.1,2.5,0.2v0.6H-8
		c-0.3,0-0.5,0.1-0.6,0.2c-0.1,0.1-0.1,0.2-0.1,0.4v0.5c0,0.3,0.1,0.4,0.2,0.5c0.1,0.1,0.3,0.1,0.4,0.1h1.6c0.4,0,0.7,0.1,1,0.4
		c0.2,0.2,0.3,0.6,0.3,1v0.5c0,0.5-0.1,0.9-0.4,1c-0.2,0.2-0.5,0.3-0.9,0.3c-0.6,0-1.5-0.1-2.7-0.2v-0.6h2.7c0,0,0,0,0.1,0
		s0.1,0,0.1,0c0.1,0,0.1,0,0.2-0.1c0.1-0.1,0.2-0.2,0.2-0.5V-67c0-0.2,0-0.3-0.1-0.4s-0.2-0.1-0.4-0.1H-8c-0.5,0-0.8-0.1-1-0.3
		C-9.2-68-9.3-68.5-9.3-69z"/>
	<path class="st1" d="M-4.4-69v-0.5c0-0.4,0.1-0.8,0.3-1c0.2-0.2,0.6-0.3,1.1-0.3c0.6,0,1.4,0.1,2.5,0.2v0.6h-2.6
		c-0.3,0-0.5,0.1-0.6,0.2c-0.1,0.1-0.1,0.2-0.1,0.4v0.5c0,0.3,0.1,0.4,0.2,0.5c0.1,0.1,0.3,0.1,0.4,0.1h1.6c0.4,0,0.7,0.1,1,0.4
		c0.2,0.2,0.3,0.6,0.3,1v0.5c0,0.5-0.1,0.9-0.4,1c-0.2,0.2-0.5,0.3-0.9,0.3c-0.6,0-1.5-0.1-2.7-0.2v-0.6h2.7c0,0,0,0,0.1,0
		s0.1,0,0.1,0c0.1,0,0.1,0,0.2-0.1c0.1-0.1,0.2-0.2,0.2-0.5V-67c0-0.2,0-0.3-0.1-0.4s-0.2-0.1-0.4-0.1h-1.6c-0.5,0-0.8-0.1-1-0.3
		C-4.3-68-4.4-68.5-4.4-69z"/>
	<path class="st1" d="M3.1-72.1v-0.8h5v0.8H5.9v6.8H5.2v-6.8H3.1z"/>
	<path class="st1" d="M8.9-65.3v-8.1h0.8v3.2c0,0,0.1,0,0.2-0.1c0.1-0.1,0.2-0.1,0.2-0.1s0.1-0.1,0.2-0.1c0.1-0.1,0.2-0.1,0.2-0.1
		s0.1,0,0.2-0.1c0.1,0,0.2-0.1,0.3-0.1c0.2,0,0.4-0.1,0.6-0.1c0.5,0,0.9,0.2,1.2,0.5s0.4,0.8,0.4,1.2v3.8h-0.7v-3.8
		c0-0.3-0.1-0.6-0.2-0.7c-0.2-0.2-0.4-0.2-0.6-0.2s-0.5,0-0.7,0.1s-0.4,0.1-0.5,0.2s-0.4,0.2-0.7,0.3v4.2
		C9.8-65.3,8.9-65.3,8.9-65.3z"/>
	<path class="st1" d="M14.3-70.6c0.7-0.2,1.6-0.3,2.6-0.3c0.4,0,0.8,0.1,1.1,0.4c0.3,0.3,0.4,0.7,0.4,1.2v4h-0.5L17.7-66l-0.1,0.1
		c-0.9,0.4-1.5,0.6-2,0.6c-0.4,0-0.7-0.1-0.9-0.4c-0.3-0.2-0.4-0.6-0.4-1v-0.6c0-0.4,0.1-0.8,0.4-1c0.2-0.2,0.6-0.4,1-0.4
		c0.7,0,1.5,0,2.2,0c0-0.2,0-0.4,0-0.5c0-0.1,0-0.2,0-0.2c0-0.6-0.3-0.8-0.8-0.8c-0.6,0-1.4,0-2.5,0.1v-0.5H14.3z M14.8-66.7
		c0,0.4,0.2,0.6,0.6,0.6c0.2,0,0.5,0,0.9-0.1s0.7-0.2,0.9-0.3l0.4-0.1v-1.5l-2.2,0.2c-0.2,0-0.3,0.1-0.4,0.2
		c-0.1,0.1-0.1,0.3-0.1,0.5v0.5H14.8z"/>
	<path class="st1" d="M19.4-65.3v-5.5h0.5l0.2,0.6c0,0,0.1,0,0.2-0.1c0.1-0.1,0.2-0.1,0.2-0.1s0.1-0.1,0.2-0.1
		c0.1-0.1,0.2-0.1,0.2-0.1s0.1,0,0.2-0.1c0.1,0,0.2-0.1,0.3-0.1c0.2,0,0.4-0.1,0.6-0.1c0.5,0,0.9,0.2,1.2,0.5
		c0.3,0.3,0.4,0.8,0.4,1.2v3.8h-0.7v-3.8c0-0.3-0.1-0.6-0.2-0.7c-0.2-0.2-0.4-0.3-0.6-0.3s-0.5,0-0.7,0.1S21-70,20.9-69.9
		s-0.4,0.2-0.7,0.3v4.2h-0.8V-65.3z"/>
</g>
<path class="st2" d="M272.1,32.7c-1.4,1.6-2.6,3.4-4.1,4.9C185.9,119.7,103.8,201.8,21.6,284c-1.4,1.4-3,2.7-4,3.5
	c85.6,85.6,170.8,170.8,255.7,255.7c31.1-31.1,63-63,95-95.1c-52.6-52.6-105.7-105.7-158.6-158.6c53.5-53.5,106.6-106.6,159.8-159.7
	c0.3-0.9,0.6-1.8,0.8-2.6c-1.7-0.8-3.7-1.3-4.9-2.5c-29.4-29.3-58.7-58.6-88.1-88c-1.2-1.3-2.2-2.8-3.4-4.1
	C273.4,32.7,272.7,32.7,272.1,32.7z"/>
</svg>
